<?xml version="1.0" encoding="UTF-8"?>
<svg id="Layer_1" data-name="Layer 1" xmlns="http://www.w3.org/2000/svg" viewBox="0 0 2258.25 1698.91">
  <defs>
    <style>
      .cls-1 {
        fill: #ed4935;
      }

      .cls-2 {
        fill: #040504;
      }

      .cls-3 {
        fill: #8f9191;
      }

      .cls-4 {
        fill: #c7c8c9;
      }

      .cls-5 {
        fill: #fbf7f1;
      }

      .cls-6 {
        fill: none;
        stroke: #ed4935;
        stroke-miterlimit: 10;
        stroke-width: 10px;
      }

      .cls-7 {
        fill: #ee261b;
      }

      .cls-8 {
        fill: #b9b9b6;
      }

      .cls-9 {
        fill: #ea4834;
      }

      .cls-10 {
        fill: #a6a7a4;
      }

      .cls-11 {
        fill: #e11f28;
      }

      .cls-12 {
        fill: #cbcbc6;
      }
    </style>
  </defs>
  <path class="cls-1" d="m2012.51,919.61c-11.6-1,89.61-203.57-111.37-276.6-30.82-6.48-81.5-10.88-124.17,16.28l66.67,39.66-218.07-.17,81.15,38.33s26.1,59.75,30.74,68.72c31.07,60.17,105.22,64.3,103.94,64.57l-.35,200.34h-228.37c-1.29-20.98-3.52-29.74-8.01-82.38-7.67-89.95-134.37-205.11-134.37-205.11l-65.76.07-206.76,44.17-196.38,198.48,120.69,41.44c-162.13,221.18,34.1,471.62,58.96,479.91,24.87,8.29,41.06,80.99,50.33,86.76,277.64,173.01,521.13-43.13,548.03-150.73,0,0,194.25,11.4,381.24,203.57l8.39-8.71-341.36-329.44,4.57-4.76,297.84,293.7c-45.13-72.5-60.19-198.9-60.22-198.95,0,0,55.52-25.81,90.02-47.87,143.21-91.6,158.23-444.86-147.38-471.28Zm-240.28,328.92c-35.76,0-64.74-28.99-64.74-64.75s28.98-64.75,64.74-64.75,64.75,28.99,64.75,64.75-28.99,64.75-64.75,64.75Zm42.21-442.05c3.51-20.83,4.67-76.33,65.79-76.33,68.38,0,68.74,56.15,72.25,76.98l-138.04-.65Zm218.07,480.75c-11.74,46.1-36.77,57.67-36.77,57.67-1.73-1.04-6.22-6.91-6.22-6.91.69-1.38,11.85-10.34,22.1-33.5,9.65-21.79,10.64-56.46,9.58-87.47h-40.37v-12.43h39.84c-.69-13.54-1.62-25.85-2.17-35.37-3.33-58.11-6.69-87.57-7.91-116.81-2.42-58.02,6.9-94.62,6.9-94.62h30.05s-23.79,74.52-15.03,165.06c2.28,23.55,5.46,52.97,6.41,82.62h145.36v10.62h-145.13c.31,25.17-1.26,50.03-6.64,71.14Z"/>
  <path d="m1196.88,1063.87c.19-6.65-.32-287.03.19-287.94,1.23-2.2,233.46-264.43,233.46-264.43,8.29,18.13,175.16,410.89,204.69,482.89,0,0-19.45,13.09-20.2,11.91-16.83-26.24-142.58-222.35-145.43-222.35-3.63,0-64.36.13-64.36.13-.51,13.19-.52,232.81-.52,243.93,0,.19,0,.22,0,.3-.26,5.05-65.4,37.43-203.63,35.68"/>
  <path class="cls-5" d="m1197.07,775.93h0s-1.04-264.43-1.04-264.43h234.5l-6.62,58.72c-29.55,158.44-110.23,203.99-226.84,205.7Z"/>
  <g>
    <path class="cls-7" d="m1801.45,1498.68c-.17-.54-.6-1.49-.47-1.57"/>
    <path class="cls-12" d="m1275.99,428.96c-10.28-.67-20.98,2.31-30.68-3.5-3.49-4.45-.53-13.37-2.01-18.12-.04-5.95,1.18-9.23-6.3-12.56-1.9-6.72-5.21-12.17-12.6-13.94-2.89-1.54-3.39-4.31-3.69-7.18,1.22-3.61,5.23-22.8,6.01-26.61,4.19-3.64,10.78-4.96,15.81-3.88,5.69,1.3,11.37,8.4,17.08-.03,1.04-1.12,2.21-2.06,3.46-2.93,4.03-2.53,8.52-3.88,13.02-5.23,4.95-1.07,8.84-4.84,13.97-5.49,7.65-.7,14.81,1.67,21.94,3.74,18.02,5.24,20.21,11.84,9.87,28.63-1.29,1.29-2.67,2.49-4.05,3.67-4.38,15.39-3.02,31.01-2.08,46.64.14,23.67-1.02,97.64-.55,100.76,1.23,8.28-33.14,5.93-35.57,4.74-2.65-1.3-2.94-12.17-3.11-25.38-.27-20.72-.6-41.7-.53-63.33Z"/>
    <path class="cls-4" d="m1226.79,344.64c-.14-8.35-.27-16.7-.41-25.05,1.41-1.11,2.99-1.87,4.74-2.29,14.77,1.37,29.55,2.76,42.56,10.98,3.5,5.08-.17,7.25-3.83,9.41-3.22,1.84-6.63,3.43-9.14,6.34l-.28.26c-5.09,4.26-10.65,4.47-16.53,1.92-5.63-1.28-11.58.78-17.12-1.57Z"/>
    <path class="cls-3" d="m1226.79,344.64c5.73-.03,11.46-.06,17.19-.09.6,1.31.34,2.37-.91,3.14-5.45-.21-10.9-.43-16.34-.64.1-1.28.06-1.29.07-2.41Z"/>
    <path d="m1309.39,372.36c-.05-2.21,16.45-27.35,2.28-31.41-8.71-2.5-33.98-5.84-36.53-8.58-.52-.56-1.19-.93-1.92-1.12-13.58-3.46-46.83-9.76-46.83-11.66-.02-15.45.02-32.82,0-48.24,0-2.28,1.84-4.14,4.12-4.14,19.62,0,68.68,0,88.51,0,4.86,0,8.44,3.89,8.4,8.75-.07,7.59-.17,17.48,0,22.96.07,2.32,1.05,4.18,3.36,4.21,75.81,1.16-2.27,59.25-15.64,104.46-3.44,11.64-7.88-22.86-5.74-35.24Z"/>
    <path class="cls-11" d="m1243.37,407.8c-6.39-.8-5.2-8.63-6.39-12.99,1.05-.31,12.04-2.62,14.63,2.87,2.68,5.7-4.08,7.32-8.23,10.12Z"/>
    <path class="cls-2" d="m1243.07,347.69c.48-1,.78-2.04.91-3.14,5.49-.09,10.97-.18,16.46-.26-5.04,13.05-6.98,13.43-17.38,3.4Z"/>
    <path class="cls-8" d="m1273.7,331.44c8.7,2.37,7.21,2.15,10.54,3.78-2.28,4.13-5.14,5.57-10,5.31-1.65-2.39-5.34-.7-6.82-3.44,2.28-2.06,3.99-3.6,6.27-5.66Z"/>
    <path class="cls-10" d="m1267.43,337.1c2.74.21,5.4.6,6.82,3.44-4.51,1.17-9.02,2.33-13.53,3.5.13-4.35,2.37-6.65,6.71-6.94Z"/>
  </g>
  <polyline points="916.15 407.8 887.66 444.29 1197.07 775.93 1196.18 511.5 1072.06 514.4"/>
  <path d="m1196.91,1073.4c59.31,1.81,178.63-7.18,207.55-31.94,1.2-1.02-.26,32.47.32,159.35.02,3.68-58.77,101.44-86.31,148.14-1.21,2.05,24.44,243.32,25.78,243.32,23.98,0,90.34.13,119.95.13v37.68c-15.55,0-365.87-.13-375.8,0l-.09-37.81h92.03v-47.44l75.71-153.41-58.79-239.57c-.35-45.32-.35-78.46-.35-78.46Z"/>
  <polygon class="cls-1" points="1306.04 1589.56 1267.45 1435.2 1208.14 1547.08 1208.14 1589.56 1306.04 1589.56"/>
  <circle cx="1646.7" cy="470.95" r="124.83"/>
  <path class="cls-1" d="m1771.41,476.39h-249.43c-.2-5.24-.43-10.33.36-16.96h248.69c.61,5.72.59,13.65.38,16.96Z"/>
  <polygon points="1777.32 659.34 1667.41 658.96 1722.37 599 1777.32 659.34"/>
  <polygon points="1928.2 994.39 1927.67 1147.98 1843.88 1071.18 1928.2 994.39"/>
  <polygon class="cls-1" points="1799.6 964.72 1661.47 1036.52 1705.32 936.72 1799.6 964.72"/>
  <path d="m1676.4,805.79l138.04.65c-3.51-20.83-3.88-76.98-72.25-76.98-61.12,0-62.28,55.5-65.79,76.33Z"/>
  <path class="cls-6" d="m737.75,351.5c-1.44-.41-2.76-1.01-3.94-1.77-.67.27-1.36.49-2.07.66,32.39,58.73,106.04,99.76,191.72,99.76,115.61,0,209.32-74.67,209.32-166.78s-93.72-166.78-209.32-166.78c-17.46,0,2.38-4.35-13.83-1.14-1.17.23-2.07,1.13-2.39,2.28"/>
  <polygon points="1040.06 137 889.32 137 964.41 0 1040.06 137"/>
  <polygon points="854.64 237.79 1050.08 237.79 952.36 407.8 854.64 237.79"/>
  <circle class="cls-1" cx="700.26" cy="142.13" r="99.45"/>
  <polygon class="cls-1" points="708.7 341.76 797.79 341.76 762.27 397.75 708.7 341.76"/>
  <polygon points="795.82 344.87 860.79 344.87 860.84 394.54 795.82 344.87"/>
  <polygon class="cls-12" points="795.82 344.87 863.44 396.51 832.47 438.92 764.8 393.26 795.82 344.87"/>
  <rect class="cls-1" x="794.19" y="341.76" width="66.6" height="3.11"/>
  <path d="m708.7,341.76c-.51-.55,20.9,143.63,23,156.52,5.31,32.68,81.74,47.3,92.89,5.87,7.08-26.29,8.44-64.93,7.89-65.3-5.05-3.34-87.36-57.59-123.78-97.09Z"/>
  <rect class="cls-1" x="889.32" y="137" width="146.59" height="7.81"/>
  <path d="m2168.75,1016.49h10.01s-31.08,34.88-32.12,69.76,14.46,214.4,16.06,242.94c1.38,24.69,14.91,43.56,16.73,46.93l-7.01,5.85s-17.83-18.76-20.59-37.06-16.02-244.35-13.47-265.21c2.68-21.84,30.39-63.19,30.39-63.19Z"/>
  <circle cx="1234.75" cy="558.2" r="8.46"/>
  <circle cx="1234.16" cy="661.86" r="8.46"/>
  <circle cx="1234.75" cy="610.03" r="8.46"/>
  <circle cx="1292.77" cy="635.03" r="5.86"/>
  <circle cx="1361.14" cy="592.39" r="5.07"/>
  <circle class="cls-1" cx="1292.77" cy="579.23" r="5.86"/>
  <circle class="cls-9" cx="1361.14" cy="546.75" r="5.07"/>
  <circle class="cls-9" cx="1403.62" cy="564.79" r="5.07"/>
  <circle class="cls-9" cx="1403.62" cy="524.46" r="5.07"/>
</svg>