<?xml version="1.0" encoding="UTF-8"?>
<svg id="Layer_1" data-name="Layer 1" xmlns="http://www.w3.org/2000/svg" viewBox="0 0 150 150">
  <defs>
    <style>
      .cls-1 {
        fill: #fff;
      }

      .cls-2 {
        fill: #232020;
      }

      .cls-3 {
        fill: #0e6cb2;
      }

      .cls-4 {
        fill: #e32c48;
      }

      .cls-5 {
        fill: #f4c515;
      }
    </style>
  </defs>
  <polygon class="cls-2" points="115.21 65.25 151.41 64.3 151.41 -1.02 124.91 -1.02 96.12 41.12 115.21 65.25"/>
  <polygon class="cls-1" points="88.01 30.88 34.88 67.36 78.99 66.2 96.12 41.12 88.01 30.88"/>
  <polygon class="cls-4" points="34.88 67.36 34.88 67.36 88.01 30.88 62.78 -1.02 -1.05 -1.02 -1.05 92.03 34.88 67.36 34.88 67.36"/>
  <polygon class="cls-3" points="88.01 30.88 88.01 30.88 96.12 41.12 124.91 -1.02 62.78 -1.02 88.01 30.88 88.01 30.88"/>
  <polygon class="cls-5" points="115.21 65.25 96.12 41.12 78.99 66.2 53 104.26 108.63 151.44 151.41 151.44 151.41 111 115.21 65.25"/>
  <polygon class="cls-3" points="115.21 65.25 151.41 111 151.41 64.3 115.21 65.25"/>
  <polygon class="cls-3" points="20.77 151.44 108.63 151.44 53 104.26 20.77 151.44"/>
  <g>
    <polygon class="cls-1" points="-1.05 92.03 -1.05 151.44 20.77 151.44 53 104.26 20.84 76.99 -1.05 92.03"/>
    <polygon class="cls-2" points="34.88 67.36 20.84 76.99 53 104.26 78.99 66.2 34.88 67.36"/>
  </g>
</svg>